<?xml version="1.0" encoding="UTF-8"?>
<!DOCTYPE svg PUBLIC "-//W3C//DTD SVG 1.1//EN" "http://www.w3.org/Graphics/SVG/1.1/DTD/svg11.dtd">
<!-- Creator: CorelDRAW X7 -->
<svg xmlns="http://www.w3.org/2000/svg" xml:space="preserve" width="2000px" height="1600px" version="1.1" style="shape-rendering:geometricPrecision; text-rendering:geometricPrecision; image-rendering:optimizeQuality; fill-rule:evenodd; clip-rule:evenodd"
viewBox="0 0 122 97"
 xmlns:xlink="http://www.w3.org/1999/xlink">
 <defs>
  <style type="text/css">
   <![CDATA[
    .fil0 {fill:#1F67B4}
    .fil1 {fill:#F1172D}
    .fil2 {fill:#FFCC00}
   ]]>
  </style>
 </defs>
 <g id="Layer_x0020_1">
  <metadata id="CorelCorpID_0Corel-Layer"/>
  <path class="fil0" d="M85 0c20,0 37,12 37,28 0,8 -5,15 -13,20 8,6 13,13 13,21 0,16 -17,28 -37,28 -15,0 -27,-7 -33,-16 6,-2 11,-4 15,-7 3,5 10,9 18,9 10,0 19,-6 19,-14 0,-6 -6,-11 -13,-13l-7 0 0 -15 7 0c7,-2 13,-7 13,-13 0,-8 -9,-14 -19,-14 -8,0 -15,4 -18,9 -4,-3 -9,-5 -15,-7 6,-9 18,-16 33,-16z"/>
  <path class="fil1" d="M49 75l0 0 0 0 0 0 -1 0 0 0 0 0 -1 0 0 0 0 0 -1 0 0 0 0 0 0 0 0 0 -1 0 0 0 0 0 0 0 -1 1 0 0 0 0 0 0 -1 0 0 0 0 0 0 0 0 0 -1 0 0 0 0 0 0 0 -1 0 0 0 0 0 -1 0 0 0 0 0 0 0 0 0 -1 0 0 0 0 0 0 0 -1 0 0 0 0 0 0 0 0 0 -1 0 0 0 0 0c-1,0 -1,0 -1,0l0 0c-1,0 -1,0 -1,0l0 0c-1,0 -1,0 -1,0l0 0c-1,0 -1,0 -1,0l0 0c0,0 -1,0 -1,0l0 0c0,0 -1,0 -1,0l0 0c0,0 -1,0 -1,0l0 0c0,0 0,0 -1,0l0 0c0,0 0,0 -1,-1l0 0c0,0 0,0 -1,0l0 0c0,0 -1,0 -2,0l0 0c0,0 -1,0 -1,-1l0 0c-3,0 -5,-1 -7,-2l0 0c-1,-1 -2,-1 -3,-2l0 0c-1,0 -1,-1 -2,-1l0 0c0,0 -1,-1 -1,-1l0 0c-1,0 -1,-1 -1,-1l0 0c-1,0 -1,0 -1,0l0 0c0,-1 0,-1 -1,-1l0 0c0,0 0,-1 -1,-1l0 0c0,0 0,0 0,0l0 0c0,-1 -1,-1 -1,-1l0 0c0,0 0,0 0,-1l0 0c0,0 -1,0 -1,0 0,0 0,-1 0,-1 -1,-1 -1,-1 -2,-2 0,0 0,-1 0,-1l0 0c0,0 0,0 0,0 -1,-1 -1,-1 -1,-1l0 0c0,0 0,0 0,-1 0,0 0,0 0,0l0 0c0,0 -1,-1 -1,-1l0 0c0,0 0,0 0,-1l0 0c0,0 0,0 0,0 0,0 0,-1 0,-1l0 0c0,0 0,0 0,-1 0,0 -1,0 -1,0 0,-1 0,-1 0,-1 0,0 0,0 0,-1 0,0 0,0 0,0 0,-1 0,-1 0,-1 0,0 0,-1 0,-1 0,0 0,0 0,-1 0,0 0,0 0,0 0,0 0,-1 0,-1 0,0 0,0 0,-1 0,0 0,0 0,0 0,-1 0,-1 0,-1 0,0 0,0 0,-1 0,0 1,0 1,0l0 0c0,-1 0,-1 0,-1 0,0 0,-1 0,-1l0 0c0,0 0,0 0,0 0,-1 0,-1 0,-1l0 0c0,0 1,-1 1,-1l0 0c0,0 0,0 0,0l0 0c0,-1 0,-1 0,-1 0,0 0,0 1,-1l0 0c0,0 0,0 0,0 0,0 0,-1 0,-1l0 0c0,0 0,0 1,0l0 0c0,-1 0,-2 1,-2l0 0c0,0 0,-1 0,-1l0 0c0,0 1,0 1,0l0 0c0,-1 0,-1 1,-2l0 0c0,0 1,-1 1,-1l0 0c1,0 1,-1 2,-1l0 0c6,-6 16,-9 27,-9l0 0 0 0 0 0 0 0 0 0 1 0 0 0 0 0 0 0 1 0 0 0 0 0 0 0 1 0 0 0 0 0 1 0 0 0 0 0 1 0 0 0 0 0 0 0 1 0 0 0 0 0 1 0c0,0 1,1 1,1l0 0 1 0 0 0c1,0 2,0 3,0l0 0c7,2 12,5 16,9l-9 4 -7 3c-4,-2 -8,-4 -12,-4 -11,0 -19,7 -19,14 0,8 8,15 19,15 4,0 9,-2 12,-4l7 3 10 3c-5,4 -10,8 -17,10z"/>
  <path class="fil2" d="M61 52c0,-4 2,-6 6,-12 4,6 7,8 7,12 0,4 -4,5 -7,5 -3,0 -6,-1 -6,-5z"/>
 </g>
</svg>
