<?xml version="1.0" encoding="UTF-8"?>
<!DOCTYPE svg PUBLIC "-//W3C//DTD SVG 1.1//EN" "http://www.w3.org/Graphics/SVG/1.1/DTD/svg11.dtd">
<!-- Creator: CorelDRAW X7 -->
<svg xmlns="http://www.w3.org/2000/svg" xml:space="preserve" width="1366px" height="1366px" version="1.1" style="shape-rendering:geometricPrecision; text-rendering:geometricPrecision; image-rendering:optimizeQuality; fill-rule:evenodd; clip-rule:evenodd"
viewBox="0 0 137 137"
 xmlns:xlink="http://www.w3.org/1999/xlink">
 <defs>
  <style type="text/css">
   <![CDATA[
    .fil1 {fill:white}
    .fil2 {fill:white;fill-rule:nonzero}
    .fil0 {fill:url(#id0)}
   ]]>
  </style>
  <radialGradient id="id0" gradientUnits="userSpaceOnUse" gradientTransform="matrix(-1.73899 1.15441 -1.15439 -1.73899 405 140)" cx="107.232" cy="96.2339" r="58.8712" fx="107.232" fy="96.2339">
   <stop offset="0" style="stop-opacity:1; stop-color:#A0D9F6"/>
   <stop offset="0.54902" style="stop-opacity:1; stop-color:#1F8CC6"/>
   <stop offset="1" style="stop-opacity:1; stop-color:#077EBD"/>
  </radialGradient>
 </defs>
 <g id="Layer_x0020_1">
  <metadata id="CorelCorpID_0Corel-Layer"/>
  <g id="_1574684974992">
   <circle class="fil0" cx="69" cy="69" r="69"/>
   <g>
    <path class="fil1" d="M32 46c3,1 8,1 11,1 -1,2 -4,3 -8,3l-17 0 13 1c-6,7 -26,3 -28,2 1,0 6,2 7,4 -5,4 -5,8 -5,11 1,-4 4,-5 5,-6 3,0 6,1 8,-3l36 0c-5,-1 -10,-2 -15,-3 -2,-3 4,-5 12,-7 8,0 17,0 25,0 5,5 10,9 14,14 -11,1 -22,0 -33,-3 15,6 32,8 58,2 9,-2 16,0 19,5 -1,-6 -7,-8 -18,-7 -8,1 -16,2 -24,3l-11 -12c6,-1 17,4 28,8 -10,-7 -23,-11 -36,-13 -17,-2 -29,1 -41,0z"/>
    <path class="fil2" d="M27 89c0,1 -1,2 -2,2 0,1 -1,1 -2,1l-10 0c-1,0 -2,0 -2,-1 0,0 0,-1 0,-2l5 -15c1,-1 1,-2 2,-2 1,-1 2,-1 2,-1l10 0c1,0 2,0 2,1 1,0 1,1 0,2l-5 15zm-4 -15l-6 16 4 0 5 -16 -3 0z"/>
    <polygon id="1" class="fil2" points="49,74 45,74 38,92 32,92 39,74 34,74 35,71 50,71 "/>
    <path id="2" class="fil2" d="M62 89c-1,1 -1,2 -2,2 -1,1 -2,1 -2,1l-11 0c0,0 -1,0 -1,-1 -1,0 -1,-1 0,-2l5 -15c0,-1 1,-2 2,-2 0,-1 1,-1 2,-1l10 0c1,0 2,0 2,1 0,0 0,1 0,2l-5 15zm-5 -15l-5 16 3 0 6 -16 -4 0z"/>
    <path id="3" class="fil2" d="M83 80c0,0 0,0 -1,1 0,0 -1,0 -1,1 0,0 0,0 1,0 0,1 0,1 0,2l-2 5c-1,1 -1,2 -2,2 -1,1 -2,1 -2,1l-13 0 7 -21 13 0c1,0 2,0 2,1 0,0 0,1 0,2l-2 6zm-8 -6l-2 6 4 0 2 -6 -4 0zm-3 9l-2 7 3 0 3 -7 -4 0z"/>
    <polygon id="4" class="fil2" points="87,92 81,92 88,71 94,71 "/>
    <polygon id="5" class="fil2" points="110,74 106,74 99,92 93,92 100,74 95,74 96,71 111,71 "/>
    <polygon id="6" class="fil2" points="124,74 112,90 119,90 118,92 105,92 106,90 118,74 112,74 113,71 125,71 "/>
   </g>
  </g>
 </g>
</svg>
